<svg width="18.000000" height="4.000000" viewBox="0 0 18 4" fill="none" xmlns="http://www.w3.org/2000/svg" xmlns:xlink="http://www.w3.org/1999/xlink">
	<desc>
			Created with Pixso.
	</desc>
	<defs/>
	<path id="Icon" d="M9 3C8.44 3 8 2.55 8 2C8 1.44 8.44 1 9 1C9.55 1 10 1.44 10 2C10 2.55 9.55 3 9 3ZM16 3C15.44 3 15 2.55 15 2C15 1.44 15.44 1 16 1C16.55 1 17 1.44 17 2C17 2.55 16.55 3 16 3ZM2 3C1.44 3 1 2.55 1 2C1 1.44 1.44 1 2 1C2.55 1 3 1.44 3 2C3 2.55 2.55 3 2 3Z" stroke="#FFFFFF" stroke-opacity="1.000000" stroke-width="2.000000" stroke-linejoin="round"/>
</svg>